<svg xmlns="http://www.w3.org/2000/svg" xmlns:xlink="http://www.w3.org/1999/xlink" width="65.26" height="65.21" viewBox="0 0 65.26 65.21"><defs><style>.cls-1{fill:url(#linear-gradient);}.cls-2{fill:#2684ff;}</style><linearGradient id="linear-gradient" x1="28.14" y1="30.87" x2="11.26" y2="1.63" gradientTransform="matrix(1, 0, 0, -1, 0, 65.89)" gradientUnits="userSpaceOnUse"><stop offset="0" stop-color="#0052cc"/><stop offset="0.92" stop-color="#2684ff"/></linearGradient></defs><g id="Layer_2" data-name="Layer 2"><g id="Layer_1-2" data-name="Layer 1"><g id="Layer_2-2" data-name="Layer 2"><g id="Blue"><path class="cls-1" d="M19.36,30.12a1.86,1.86,0,0,0-2.61-.35,2,2,0,0,0-.55.69l-16,32a1.91,1.91,0,0,0,1.71,2.77H24.19a1.84,1.84,0,0,0,1.71-1.06C30.7,54.23,27.79,39.13,19.36,30.12Z"/><path class="cls-2" d="M31.09,1a42.16,42.16,0,0,0-2.46,41.65L39.37,64.15a1.9,1.9,0,0,0,1.71,1.06H63.35a1.91,1.91,0,0,0,1.91-1.91,2,2,0,0,0-.2-.86L34.34,1a1.8,1.8,0,0,0-3.25,0Z"/></g></g></g></g></svg>