<svg viewBox="0 0 504 491" xmlns="http://www.w3.org/2000/svg" fill-rule="evenodd" clip-rule="evenodd" stroke-linejoin="round" stroke-miterlimit="2"><g fill="#181717"><path d="M251.617 0C112.671 0 0 112.646 0 251.617 0 362.783 72.096 457.1 172.071 490.371c12.575 2.329 17.192-5.459 17.192-12.104 0-6-.234-25.821-.342-46.846-70 15.221-84.771-29.688-84.771-29.688-11.446-29.079-27.938-36.816-27.938-36.816-22.829-15.617 1.721-15.296 1.721-15.296 25.267 1.775 38.571 25.933 38.571 25.933 22.442 38.463 58.863 27.342 73.221 20.913 2.258-16.259 8.779-27.363 15.975-33.646-55.888-6.359-114.638-27.938-114.638-124.35 0-27.467 9.83-49.917 25.925-67.538-2.612-6.337-11.225-31.929 2.438-66.587 0 0 21.129-6.759 69.212 25.796 20.071-5.575 41.596-8.371 62.98-8.471 21.383.1 42.925 2.896 63.033 8.471 48.025-32.555 69.125-25.796 69.125-25.796 13.696 34.658 5.079 60.25 2.467 66.587 16.133 17.621 25.895 40.071 25.895 67.538 0 96.646-58.862 117.921-114.891 124.15 9.025 7.808 17.066 23.121 17.066 46.596 0 33.666-.291 60.762-.291 69.05 0 6.695 4.529 14.541 17.283 12.07 99.921-33.308 171.925-127.587 171.925-238.72C503.229 112.646 390.575 0 251.617 0z"/><path d="M95.3 361.262c-.554 1.255-2.521 1.63-4.312.771-1.826-.825-2.851-2.529-2.259-3.783.542-1.283 2.513-1.642 4.333-.783 1.83.82 2.871 2.541 2.238 3.795zM105.492 372.633c-1.2 1.109-3.546.592-5.138-1.166-1.646-1.755-1.954-4.1-.737-5.23 1.237-1.108 3.512-.587 5.162 1.167 1.646 1.775 1.967 4.1.713 5.229zM115.413 387.121c-1.542 1.075-4.063.071-5.621-2.167-1.542-2.237-1.542-4.925.033-6 1.563-1.075 4.046-.104 5.625 2.113 1.537 2.275 1.537 4.958-.037 6.054zM129.004 401.121c-1.379 1.521-4.317 1.112-6.467-.963-2.2-2.029-2.812-4.908-1.429-6.429 1.396-1.525 4.35-1.096 6.517.963 2.183 2.025 2.85 4.925 1.379 6.429zM147.754 409.25c-.608 1.971-3.437 2.867-6.287 2.029-2.846-.862-4.709-3.171-4.134-5.162.592-1.984 3.434-2.917 6.304-2.021 2.842.858 4.709 3.15 4.117 5.154zM168.346 410.758c.071 2.075-2.346 3.796-5.338 3.834-3.008.066-5.441-1.613-5.475-3.654 0-2.096 2.363-3.801 5.371-3.851 2.992-.058 5.442 1.609 5.442 3.671zM187.508 407.496c.359 2.025-1.721 4.104-4.691 4.658-2.921.533-5.625-.717-5.996-2.725-.363-2.075 1.754-4.154 4.671-4.692 2.975-.516 5.637.7 6.016 2.759z" fill-rule="nonzero"/></g></svg>