<svg xmlns="http://www.w3.org/2000/svg" viewBox="0 0 257 128"><path d="M60.5 87.5L37.8 71l8.7-26.7h28.1L83.3 71 60.5 87.5zM121 44L97.7 27.1 75.2 43.5l8.6-26.6L60.5 0 37.2 16.9l8.6 26.5-22.5-16.3L0 44l8.8 27.2.1.2h27.9L14.2 87.7l8.8 27.2.1.2h28.8l8.6-26.6 8.6 26.4.1.2H98l8.9-27.4-22.7-16.4h27.9L121 44zm126.4 51.5c0-.6-.6-5-5.6-5s-5.6 4.4-5.6 5l.6.6h10l.6-.6zm9.4 6.2l-.6.6h-19.4l-.6.6c0 1.3 1.2 5 6.2 5 1.9 0 3.8-.6 4.4-1.9l.6-.6h7.5l.6.6c-.6 3.8-3.8 9.4-13.1 9.4-10.6 0-15.6-7.5-15.6-16.3s5-16.3 15-16.3 15 7.5 15 16.3v2.6zm-48.6 6.3c5 0 6.9-3.8 6.9-8.8 0-5-1.9-8.8-6.9-8.8s-6.9 3.8-6.9 8.8c0 5 1.9 8.8 6.9 8.8zm15.6 3.7c0 11.2-6.9 16.3-15.6 16.3-7.5 0-12.5-3.8-13.1-9.4l.6-.6h7.5l.6.6c.6 1.2 1.9 1.9 4.4 1.9 4.4 0 6.9-2.5 6.9-8.1h-.6s-2.5 3.1-8.1 3.1c-7.5 0-13.8-6.3-13.8-16.3S198.8 83 206.3 83c5.6 0 8.1 3.1 8.1 3.1h.6l.6-1.9.6-.6h6.9l.6.6.1 27.5zm-43.5-10s-1.2-.6-3.8-.6c-3.8 0-5.6 1.2-5.6 3.8 0 1.9 1.2 3.1 4.4 3.1 3.1 0 5.6-1.9 5.6-4.4v-1.3l-.6-.6zm8.7 13.2h-6.9l-.6-.6-.6-1.3h-.6s-2.5 2.5-6.9 2.5c-6.9 0-11.3-3.8-11.3-10 0-9.4 8.8-10.6 13.8-10.6 2.5 0 4.4.6 4.4.6l.6-.6v-.6c0-3.1-.6-3.8-4.4-3.8-1.9 0-3.8 0-4.4 1.9l-.6.6H164l-.6-.6c0-3.8 3.1-9.4 13.1-9.4s13.1 5 13.1 14.4v16.9l-.6.6zm-47.6.6c-12.5 0-18.1-6.3-18.1-14.4l.6-.6h7.5l.6.6c0 4.4 2.5 6.9 10 6.9 5.6 0 8.8-1.9 8.8-5.6 0-4.4-2.5-5.6-11.3-6.9-8.8-1.2-15.6-4.4-15.6-13.1 0-6.3 5-11.9 16.9-11.9 11.9 0 16.9 5.6 16.9 13.1l-.6.6h-7.5l-.6-.6c0-3.8-1.9-5.6-8.8-5.6-5.6 0-7.5 1.9-7.5 4.4 0 3.8 2.5 5 11.2 6.3 8.8 1.2 15.6 5 15.6 13.8 0 6.7-5 13-18.1 13z" fill="#e5375b"/></svg>