<svg xmlns="http://www.w3.org/2000/svg" width="122.53" height="122.52"><defs><style>.cls-1{fill:#464342}</style></defs><g id="Layer_2" data-name="Layer 2"><g id="Layer_1-2" data-name="Layer 1"><g id="Layer_2-2" data-name="Layer 2"><path class="cls-1" d="M8.71 61.26a52.57 52.57 0 0029.62 47.3L13.26 39.87a52.31 52.31 0 00-4.55 21.39zM96.74 58.61c0-6.5-2.33-11-4.33-14.5-2.67-4.32-5.17-8-5.17-12.32 0-4.83 3.67-9.33 8.83-9.33h.68a52.55 52.55 0 00-79.4 9.9c1.23 0 2.4.06 3.38.06 5.5 0 14-.67 14-.67a2.17 2.17 0 01.34 4.33s-2.85.34-6 .5L48.2 93.55l11.5-34.5-8.19-22.43c-2.83-.17-5.51-.5-5.51-.5-2.83-.17-2.5-4.5.33-4.33 0 0 8.68.67 13.85.67 5.49 0 14-.67 14-.67a2.17 2.17 0 01.34 4.33s-2.85.33-6 .5l19 56.49 5.22-17.51c2.26-7.27 4-12.49 4-16.99z"/><path class="cls-1" d="M62.18 65.86l-15.76 45.82a52.56 52.56 0 0032.29-.84 5.54 5.54 0 01-.37-.73zM107.38 36.05a41.29 41.29 0 01.35 5.4 49.56 49.56 0 01-4 18.82l-16 46.42a52.58 52.58 0 0019.7-70.64z"/><path class="cls-1" d="M61.26 0a61.26 61.26 0 1061.27 61.26A61.33 61.33 0 0061.26 0zm0 119.71a58.45 58.45 0 1158.45-58.45 58.52 58.52 0 01-58.45 58.45z"/></g></g></g></svg>