<?xml version="1.0" encoding="utf-8"?>
<!-- Generator: Adobe Illustrator 19.1.0, SVG Export Plug-In . SVG Version: 6.00 Build 0)  -->
<!DOCTYPE svg PUBLIC "-//W3C//DTD SVG 1.1//EN" "http://www.w3.org/Graphics/SVG/1.1/DTD/svg11.dtd">
<svg version="1.1" id="Layer_1" xmlns="http://www.w3.org/2000/svg" xmlns:xlink="http://www.w3.org/1999/xlink" x="0px" y="0px"
	 viewBox="0 0 75 75" enable-background="new 0 0 75 75" xml:space="preserve">
<g>
	<polygon fill-rule="evenodd" clip-rule="evenodd" fill="#008D36" points="18,72.5 18,2.5 58.7,2.5 70.5,14.2 70.5,72.5 18,72.5 	
		"/>
	<polygon fill-rule="evenodd" clip-rule="evenodd" fill="#FFFFFF" points="64.7,16.9 53,16.9 53,8.3 23.9,8.3 23.9,66.5 64.7,66.5 
		64.7,16.9 	"/>
	<g>
		<rect x="50.1" y="49.8" fill="#008D36" stroke="#FFFFFF" stroke-width="1.8521" width="11.7" height="11.7"/>
		<rect x="50.1" y="38.1" fill="#008D36" stroke="#FFFFFF" stroke-width="1.8521" width="11.7" height="11.7"/>
		<rect x="38.5" y="49.8" fill="#008D36" stroke="#FFFFFF" stroke-width="1.8521" width="11.7" height="11.7"/>
		<rect x="26.8" y="49.8" fill="#008D36" stroke="#FFFFFF" stroke-width="1.8521" width="11.7" height="11.7"/>
		<rect x="38.5" y="38.1" fill="#008D36" stroke="#FFFFFF" stroke-width="1.8521" width="11.7" height="11.7"/>
		<rect x="50.1" y="26.5" fill="#008D36" stroke="#FFFFFF" stroke-width="1.8521" width="11.7" height="11.7"/>
	</g>
	<g>
		<g>
			<rect x="3.2" y="14.7" fill="#008D36" width="44.5" height="21"/>
			<g>
				<path fill="#FFFFFF" d="M46.5,16v18.5h-42V16H46.5 M48.9,13.5h-2.5h-42H2V16v18.5V37h2.5h42h2.5v-2.5V16V13.5L48.9,13.5z"/>
			</g>
		</g>
		<g>
			<path fill="#FFFFFF" d="M19.3,26.4l1.7,0.6c-0.3,1-0.7,1.7-1.3,2.1c-0.6,0.5-1.4,0.7-2.3,0.7c-1.2,0-2.1-0.4-2.9-1.2
				c-0.8-0.8-1.1-1.9-1.1-3.3c0-1.5,0.4-2.6,1.1-3.4c0.8-0.8,1.8-1.2,3-1.2c1.1,0,2,0.3,2.6,1c0.4,0.4,0.7,0.9,0.9,1.6l-1.8,0.4
				c-0.1-0.5-0.3-0.8-0.7-1.1c-0.3-0.3-0.7-0.4-1.2-0.4c-0.7,0-1.2,0.2-1.6,0.7c-0.4,0.5-0.6,1.2-0.6,2.3c0,1.1,0.2,1.9,0.6,2.4
				c0.4,0.5,0.9,0.7,1.6,0.7c0.5,0,0.9-0.1,1.2-0.5C18.9,27.5,19.2,27.1,19.3,26.4z"/>
			<path fill="#FFFFFF" d="M22.1,26.8l1.7-0.2c0.1,0.6,0.3,1,0.6,1.3c0.3,0.3,0.8,0.4,1.3,0.4c0.6,0,1-0.1,1.3-0.4
				c0.3-0.2,0.4-0.5,0.4-0.9c0-0.2-0.1-0.4-0.2-0.5c-0.1-0.2-0.3-0.3-0.6-0.4c-0.2-0.1-0.7-0.2-1.4-0.4c-1-0.2-1.6-0.5-2-0.9
				c-0.5-0.5-0.8-1.1-0.8-1.8c0-0.4,0.1-0.9,0.4-1.3c0.3-0.4,0.6-0.7,1.1-0.9c0.5-0.2,1.1-0.3,1.7-0.3c1.1,0,1.9,0.2,2.5,0.7
				c0.6,0.5,0.9,1.1,0.9,2l-1.8,0.1c-0.1-0.5-0.2-0.8-0.5-1c-0.3-0.2-0.6-0.3-1.1-0.3c-0.5,0-0.9,0.1-1.2,0.3
				c-0.2,0.1-0.3,0.3-0.3,0.5c0,0.2,0.1,0.4,0.3,0.5c0.2,0.2,0.8,0.4,1.6,0.6c0.9,0.2,1.5,0.4,1.9,0.6c0.4,0.2,0.7,0.5,1,0.9
				c0.2,0.4,0.4,0.8,0.4,1.4c0,0.5-0.1,1-0.4,1.4c-0.3,0.4-0.7,0.8-1.2,1c-0.5,0.2-1.2,0.3-1.9,0.3c-1.1,0-2-0.3-2.6-0.8
				C22.6,28.5,22.2,27.8,22.1,26.8z"/>
			<path fill="#FFFFFF" d="M30.4,26.8l1.7-0.2c0.1,0.6,0.3,1,0.6,1.3c0.3,0.3,0.8,0.4,1.3,0.4c0.6,0,1-0.1,1.3-0.4
				c0.3-0.2,0.4-0.5,0.4-0.9c0-0.2-0.1-0.4-0.2-0.5c-0.1-0.2-0.3-0.3-0.6-0.4c-0.2-0.1-0.7-0.2-1.4-0.4c-1-0.2-1.6-0.5-2-0.9
				c-0.5-0.5-0.8-1.1-0.8-1.8c0-0.4,0.1-0.9,0.4-1.3c0.3-0.4,0.6-0.7,1.1-0.9c0.5-0.2,1.1-0.3,1.7-0.3c1.1,0,1.9,0.2,2.5,0.7
				c0.6,0.5,0.9,1.1,0.9,2l-1.8,0.1c-0.1-0.5-0.2-0.8-0.5-1c-0.3-0.2-0.6-0.3-1.1-0.3c-0.5,0-0.9,0.1-1.2,0.3
				c-0.2,0.1-0.3,0.3-0.3,0.5c0,0.2,0.1,0.4,0.3,0.5c0.2,0.2,0.8,0.4,1.6,0.6c0.9,0.2,1.5,0.4,1.9,0.6c0.4,0.2,0.7,0.5,1,0.9
				c0.2,0.4,0.3,0.8,0.3,1.4c0,0.5-0.1,1-0.4,1.4c-0.3,0.4-0.7,0.8-1.2,1c-0.5,0.2-1.2,0.3-1.9,0.3c-1.1,0-2-0.3-2.6-0.8
				C30.8,28.5,30.5,27.8,30.4,26.8z"/>
		</g>
	</g>
</g>
</svg>
