<svg xmlns="http://www.w3.org/2000/svg" width="307" height="113" viewBox="0 0 307 113"><defs><style>.cls-1{fill:#f3702a;}.cls-2{fill:none;stroke:#000;stroke-miterlimit:10;stroke-width:2px;}</style></defs><title>dmcwhinnie-logo</title><g id="Layer_2" data-name="Layer 2"><g id="Layer_1-2" data-name="Layer 1"><path d="M32,35.28a8.32,8.32,0,0,1,7.69,4.45h.09A17,17,0,0,1,39.65,38V26.47h3.19v33H39.75V56.93a13.26,13.26,0,0,1,.09-1.69h-.09S37.83,60,31.64,60,21.37,54.92,21.37,47.61,25.78,35.28,32,35.28Zm.14,21.84c3.94,0,7.64-2.81,7.64-9.52,0-4.78-2.44-9.47-7.5-9.47-4.17,0-7.59,3.52-7.59,9.47S27.7,57.12,32.11,57.12Z"/><path d="M50.53,35.84h3.14v3.51c0,1-.09,1.88-.09,1.88h.09a9.64,9.64,0,0,1,8.53-6c4.36,0,6.61,2,7.31,5.91h.09a9.58,9.58,0,0,1,8.67-5.91c5.72,0,7.83,3.33,7.83,9.14v15H82.92V45.21c0-3.84-.8-7-5.11-7-3.61,0-6.56,3.19-7.45,6.66a11.23,11.23,0,0,0-.42,3.42V59.42H66.75V45.21c0-3.56-.52-7-5-7-3.84,0-6.75,3.33-7.73,6.94a13.75,13.75,0,0,0-.33,3.14V59.42H50.53Z"/><path d="M104.21,35.28a11.61,11.61,0,0,1,8.62,3.38L111.19,41a10,10,0,0,0-6.89-2.86c-5.16,0-9.19,3.84-9.19,9.47a9.14,9.14,0,0,0,9.28,9.47,10.39,10.39,0,0,0,7.55-3.33l1.45,2.48a12.59,12.59,0,0,1-9.19,3.7A12,12,0,0,1,91.83,47.65,12,12,0,0,1,104.21,35.28Z"/><path d="M116.16,35.84h3.38l5.72,17.58c.37,1.13.7,2.53.7,2.53h.09s.33-1.41.7-2.53l5.81-17.48h3.14l5.81,17.48c.38,1.13.7,2.53.7,2.53h.09s.33-1.36.7-2.53l5.72-17.58h3.38l-8,23.58h-3.47l-5.77-16.78c-.42-1.17-.75-2.53-.75-2.53h-.09s-.33,1.36-.7,2.53L127.6,59.42h-3.47Z"/><path class="cls-1" d="M156.48,26.33H161V38.47c0,1.13-.09,2-.09,2H161a9.58,9.58,0,0,1,8.77-5.3c5.58,0,8.16,3,8.16,9.09V59.42H173.4V45.26c0-3.33-.7-6-4.5-6a7.85,7.85,0,0,0-7.5,5.86,11.1,11.1,0,0,0-.38,3.14V59.42h-4.55Z"/><path class="cls-1" d="M184.7,26.33h4.59V31H184.7Zm0,9.37h4.55V59.42h-4.55Z"/><path d="M196.7,35.84h3.14v3.51c0,1-.09,1.88-.09,1.88h.09a10,10,0,0,1,9.42-6c5.81,0,7.87,3.33,7.87,9.14v15h-3.19V45.26c0-3.7-.56-7-5.11-7a9,9,0,0,0-8.58,6.66,11.66,11.66,0,0,0-.38,3.19v11.3H196.7Z"/><path d="M224.5,35.84h3.14v3.51c0,1-.09,1.88-.09,1.88h.09a10,10,0,0,1,9.42-6c5.81,0,7.87,3.33,7.87,9.14v15h-3.19V45.26c0-3.7-.56-7-5.11-7a9,9,0,0,0-8.58,6.66,11.66,11.66,0,0,0-.38,3.19v11.3H224.5Z"/><path d="M252.2,26.47h3.33v4H252.2Zm.09,9.37h3.19V59.42H252.3Z"/><path d="M273.16,35.28c6.52,0,9.84,5,9.84,10.87,0,.56-.09,1.64-.09,1.64H264.81c.14,6,4.26,9.33,9.14,9.33a11,11,0,0,0,7.17-2.86l1.45,2.44A13.52,13.52,0,0,1,273.86,60a11.92,11.92,0,0,1-12.33-12.33C261.53,39.92,266.78,35.28,273.16,35.28Zm6.61,9.89c-.19-4.92-3.19-7.22-6.7-7.22-3.94,0-7.36,2.48-8.11,7.22Z"/><path d="M26.08,74.38a4.06,4.06,0,0,1,3.63,2.37h0a4.39,4.39,0,0,1-.08-.86V70.43h.88v14.7h-.88V83.81a3.39,3.39,0,0,1,.08-.8h0a4,4,0,0,1-3.8,2.37c-2.81,0-4.54-2.25-4.54-5.5S23.33,74.38,26.08,74.38ZM26,84.52c1.93,0,3.74-1.37,3.74-4.66,0-2.33-1.2-4.62-3.65-4.62-2.06,0-3.74,1.7-3.74,4.64S23.81,84.52,26,84.52Z"/><path d="M38.61,74.38c2.86,0,4.28,2.25,4.28,4.79,0,.23,0,.57,0,.57H34.44a4.44,4.44,0,0,0,4.49,4.79,4.75,4.75,0,0,0,3.25-1.32l.48.74a5.72,5.72,0,0,1-3.74,1.45,5.28,5.28,0,0,1-5.42-5.48C33.51,76.35,35.93,74.38,38.61,74.38ZM42,78.91c-.1-2.56-1.64-3.72-3.38-3.72a4.08,4.08,0,0,0-4.09,3.72Z"/><path d="M45.52,83.2a4.57,4.57,0,0,0,3.25,1.32c1.28,0,2.41-.67,2.41-2,0-2.67-5.77-1.91-5.77-5.33,0-1.87,1.57-2.83,3.36-2.83a4.14,4.14,0,0,1,3.11,1.13l-.52.71a3.59,3.59,0,0,0-2.65-1c-1.2,0-2.37.55-2.37,1.91,0,2.73,5.77,1.91,5.77,5.4,0,1.68-1.43,2.83-3.36,2.83A5.08,5.08,0,0,1,45,83.87Z"/><path d="M54.93,70.43h1V72h-1Zm.08,4.2h.88v10.5H55Z"/><path d="M63.06,88.68c2.25,0,4-1.07,4-3.61V83.85a4.41,4.41,0,0,1,.08-.86h0a3.7,3.7,0,0,1-3.53,2.14c-2.73,0-4.66-2.14-4.66-5.42s1.78-5.33,4.51-5.33c3,0,3.65,2.06,3.65,2.06h0A1.09,1.09,0,0,1,67,76V74.63h.88V85.07c0,3.21-2.31,4.47-4.81,4.47a7.23,7.23,0,0,1-3.3-.82l.42-.78A6.43,6.43,0,0,0,63.06,88.68Zm4-9c0-3.38-1.6-4.47-3.65-4.47-2.25,0-3.59,1.64-3.59,4.47s1.55,4.56,3.8,4.56C65.47,84.27,67.07,83.11,67.07,79.71Z"/><path d="M71.63,74.63h.88v1.85a4.39,4.39,0,0,1-.08.86h0a4.84,4.84,0,0,1,4.45-3c2.73,0,3.46,1.62,3.46,4.09v6.66H79.5V78.79c0-1.83-.23-3.55-2.58-3.55a4.45,4.45,0,0,0-4.24,3.34A5.22,5.22,0,0,0,72.51,80v5.12h-.88Z"/><path d="M121,74.48a4.06,4.06,0,0,1,3.63,2.37h0a4.39,4.39,0,0,1-.08-.86V70.54h.88v14.7h-.88V83.91a3.39,3.39,0,0,1,.08-.8h0a4,4,0,0,1-3.8,2.37c-2.81,0-4.54-2.25-4.54-5.5S118.23,74.48,121,74.48Zm-.13,10.14c1.93,0,3.74-1.37,3.74-4.66,0-2.33-1.2-4.62-3.65-4.62-2.06,0-3.74,1.7-3.74,4.64S118.71,84.63,120.85,84.63Z"/><path d="M133.51,74.48c2.86,0,4.28,2.25,4.28,4.79,0,.23,0,.57,0,.57h-8.42a4.44,4.44,0,0,0,4.49,4.79,4.75,4.75,0,0,0,3.25-1.32l.48.74a5.72,5.72,0,0,1-3.74,1.45A5.28,5.28,0,0,1,128.41,80C128.41,76.46,130.83,74.48,133.51,74.48ZM136.87,79c-.1-2.56-1.64-3.72-3.38-3.72A4.08,4.08,0,0,0,129.4,79Z"/><path d="M139.29,74.74h.94L143.47,83c.19.5.36,1.13.36,1.13h0s.17-.63.36-1.13l3.23-8.23h.92l-4.12,10.5h-.84Z"/><path d="M155,74.48c2.86,0,4.28,2.25,4.28,4.79,0,.23,0,.57,0,.57H150.8a4.44,4.44,0,0,0,4.49,4.79,4.75,4.75,0,0,0,3.25-1.32L159,84a5.73,5.73,0,0,1-3.74,1.45A5.28,5.28,0,0,1,149.87,80C149.87,76.46,152.29,74.48,155,74.48ZM158.33,79c-.11-2.56-1.64-3.72-3.38-3.72A4.08,4.08,0,0,0,150.86,79Z"/><path d="M162.12,70.54H163v12.3c0,1.47.76,1.64,1.24,1.64a2.58,2.58,0,0,0,.32,0v.82a2,2,0,0,1-.38,0,2,2,0,0,1-2.06-2.2Z"/><path d="M171.71,74.48a5.4,5.4,0,0,1,5.44,5.44,5.44,5.44,0,1,1-10.87,0A5.4,5.4,0,0,1,171.71,74.48Zm0,10.14a4.57,4.57,0,0,0,4.51-4.7,4.51,4.51,0,1,0-9,0A4.57,4.57,0,0,0,171.71,84.63Z"/><path d="M180.07,74.74H181V76a5.3,5.3,0,0,1-.06.84h0a3.94,3.94,0,0,1,3.78-2.35c2.81,0,4.54,2.25,4.54,5.5s-2,5.5-4.66,5.5a4,4,0,0,1-3.67-2.37h0A4.68,4.68,0,0,1,181,84v5.4h-.88Zm4.51,9.89c2.06,0,3.74-1.7,3.74-4.64s-1.51-4.64-3.65-4.64c-1.93,0-3.74,1.37-3.74,4.66C180.93,82.34,182.23,84.63,184.58,84.63Z"/><path d="M231.7,75.82a5.07,5.07,0,0,1,3.76,1.49l-.55.71a4.56,4.56,0,0,0-3.21-1.34,4.64,4.64,0,0,0,0,9.28,4.63,4.63,0,0,0,3.51-1.51l.46.73a5.36,5.36,0,0,1-4,1.64,5.28,5.28,0,0,1-5.42-5.48A5.34,5.34,0,0,1,231.7,75.82Z"/><path d="M238.59,76.07h.88v2a4.4,4.4,0,0,1-.08.86h0c.52-1.62,1.7-2.94,3.36-2.94a3.25,3.25,0,0,1,.61.06v.88a3.5,3.5,0,0,0-.48,0c-1.64,0-2.67,1.38-3.13,2.94a7.47,7.47,0,0,0-.31,2.2v4.54h-.88Z"/><path d="M249.8,75.82c2.86,0,4.28,2.25,4.28,4.79,0,.23,0,.57,0,.57h-8.42A4.44,4.44,0,0,0,250.12,86a4.75,4.75,0,0,0,3.25-1.32l.48.74a5.72,5.72,0,0,1-3.74,1.45,5.28,5.28,0,0,1-5.42-5.48C244.7,77.79,247.11,75.82,249.8,75.82Zm3.36,4.54c-.1-2.56-1.64-3.72-3.38-3.72a4.08,4.08,0,0,0-4.09,3.72Z"/><path d="M262.69,80.16h.69v-.36c0-2.33-1.2-3.13-2.88-3.13a4.94,4.94,0,0,0-3,1L257,77a5.49,5.49,0,0,1,3.55-1.16c2.41,0,3.72,1.34,3.72,4v6.78h-.88V85.18a4.81,4.81,0,0,1,.08-.95h0a4,4,0,0,1-3.67,2.58c-1.7,0-3.57-.94-3.57-3C256.19,80.21,260.83,80.16,262.69,80.16ZM259.8,86c2.29,0,3.59-2.37,3.59-4.45V81h-.67c-1.79,0-5.61,0-5.61,2.73A2.42,2.42,0,0,0,259.8,86Z"/><path d="M268.09,76.93h-1.39v-.8h1.39v-3H269v3h2.75v.8H269V82.7c0,2.77,1.66,3.13,2.5,3.13a2.5,2.5,0,0,0,.48,0v.82a3,3,0,0,1-.52,0c-1.09,0-3.34-.4-3.34-3.88Z"/><path d="M278.72,75.82c2.86,0,4.28,2.25,4.28,4.79,0,.23,0,.57,0,.57h-8.42A4.44,4.44,0,0,0,279,86a4.75,4.75,0,0,0,3.25-1.32l.48.74A5.73,5.73,0,0,1,279,86.82a5.28,5.28,0,0,1-5.42-5.48C273.62,77.79,276,75.82,278.72,75.82Zm3.36,4.54c-.11-2.56-1.64-3.72-3.38-3.72a4.08,4.08,0,0,0-4.09,3.72Z"/><circle class="cls-1" cx="98.33" cy="79.98" r="4"/><circle class="cls-1" cx="207.76" cy="79.98" r="4"/><rect class="cls-2" x="1" y="1" width="305" height="111"/></g></g></svg>