<?xml version="1.0" encoding="utf-8"?>
<!-- Generator: Adobe Illustrator 19.1.0, SVG Export Plug-In . SVG Version: 6.00 Build 0)  -->
<!DOCTYPE svg PUBLIC "-//W3C//DTD SVG 1.1//EN" "http://www.w3.org/Graphics/SVG/1.1/DTD/svg11.dtd">
<svg version="1.1" id="Layer_1" xmlns="http://www.w3.org/2000/svg" xmlns:xlink="http://www.w3.org/1999/xlink" x="0px" y="0px"
	 viewBox="0 0 75 75" enable-background="new 0 0 75 75" xml:space="preserve">
<g>
	<polygon fill-rule="evenodd" clip-rule="evenodd" fill="#35A8E0" points="18,72.5 18,2.5 58.7,2.5 70.5,14.2 70.5,72.5 18,72.5 	
		"/>
	<polygon fill-rule="evenodd" clip-rule="evenodd" fill="#FFFFFF" points="64.7,16.9 53,16.9 53,8.3 23.9,8.3 23.9,66.5 64.7,66.5 
		64.7,16.9 	"/>
	<g>
		<path fill="#35A8E0" d="M38.9,59l-12.1-5.3v-2.9l12.1-5.2V49l-8.5,3.2l8.5,3.4V59z M40.8,61.5l4.4-18.3h2.5l-4.4,18.3H40.8z
			 M49.7,59v-3.4l8.5-3.3L49.7,49v-3.4l12.1,5.2v2.9L49.7,59z"/>
	</g>
	<g>
		<g>
			<rect x="3.2" y="14.7" fill="#35A8E0" width="44.5" height="21"/>
			<path fill="#FFFFFF" d="M46.5,16v18.5h-42V16H46.5 M48.9,13.5h-2.5h-42H2V16v18.5V37h2.5h42h2.5v-2.5V16V13.5L48.9,13.5z"/>
		</g>
		<g>
			<path fill="#FFFFFF" d="M8.9,29.7v-8.8h1.8v3.5h3.5v-3.5H16v8.8h-1.8v-3.9h-3.5v3.9H8.9z"/>
			<path fill="#FFFFFF" d="M19.8,29.7v-7.3h-2.6v-1.5h7v1.5h-2.6v7.3H19.8z"/>
			<path fill="#FFFFFF" d="M25.4,29.7v-8.8h2.7l1.6,6l1.6-6h2.7v8.8h-1.7v-7l-1.8,7h-1.7l-1.8-7v7H25.4z"/>
			<path fill="#FFFFFF" d="M35.7,29.7v-8.8h1.8v7.3H42v1.5H35.7z"/>
		</g>
	</g>
</g>
</svg>
