<?xml version="1.0" encoding="utf-8"?>
<!-- Generator: Adobe Illustrator 19.1.0, SVG Export Plug-In . SVG Version: 6.00 Build 0)  -->
<!DOCTYPE svg PUBLIC "-//W3C//DTD SVG 1.1//EN" "http://www.w3.org/Graphics/SVG/1.1/DTD/svg11.dtd">
<svg version="1.1" id="Layer_1" xmlns="http://www.w3.org/2000/svg" xmlns:xlink="http://www.w3.org/1999/xlink" x="0px" y="0px"
	 viewBox="0 0 75 75" enable-background="new 0 0 75 75" xml:space="preserve">
<g>
	<rect y="0" fill="#F29100" width="75" height="75"/>
	<path fill="#FFFFFF" d="M30.1,22.5h6.8l9.4,29.1h-5.7L38,43.3h-9.2l-2.5,8.2h-5.5L30.1,22.5z M31.8,32.2l-2.2,7.2h7.5l-2.3-7.2
		c-0.6-1.8-1-3.8-1.5-5.4h-0.1C32.8,28.4,32.4,30.4,31.8,32.2z M48.1,24.7c0-1.6,1.2-2.9,3-2.9c1.8,0,2.9,1.3,3,2.9
		c0,1.6-1.2,2.8-3,2.8C49.2,27.5,48.1,26.3,48.1,24.7z M48.4,51.6v-21h5.3v21H48.4z"/>
</g>
</svg>
