<?xml version="1.0" encoding="utf-8"?>
<!-- Generator: Adobe Illustrator 19.1.0, SVG Export Plug-In . SVG Version: 6.00 Build 0)  -->
<!DOCTYPE svg PUBLIC "-//W3C//DTD SVG 1.1//EN" "http://www.w3.org/Graphics/SVG/1.1/DTD/svg11.dtd">
<svg version="1.1" id="Layer_1" xmlns="http://www.w3.org/2000/svg" xmlns:xlink="http://www.w3.org/1999/xlink" x="0px" y="0px"
	 viewBox="0 0 75 75" enable-background="new 0 0 75 75" xml:space="preserve">
<g>
	<rect y="0" fill="#E5007E" width="75" height="75"/>
	<path fill="#FFFFFF" d="M23.9,51.5V22.4h5.3v29.1H23.9z M47.5,20.9h4.9v24.7l0.2,5.9h-4.3l-0.2-3.3h-0.1c-1.1,2.3-3.5,3.8-6.3,3.8
		c-4.6,0-8.2-4.3-8.2-10.7c0-7,4-11.2,8.6-11.2c2.6,0,4.5,1.2,5.4,2.8h0.1V20.9z M38.3,41c0,3.8,1.7,6.6,4.8,6.6
		c2,0,3.7-1.5,4.2-3.8c0.1-0.5,0.2-1,0.2-1.6v-3.1l-0.1-1.4c-0.4-2.1-2-3.8-4.2-3.8C40.1,34.1,38.3,37.1,38.3,41z"/>
</g>
</svg>
