<?xml version="1.0" encoding="utf-8"?>
<!-- Generator: Adobe Illustrator 19.1.0, SVG Export Plug-In . SVG Version: 6.00 Build 0)  -->
<!DOCTYPE svg PUBLIC "-//W3C//DTD SVG 1.1//EN" "http://www.w3.org/Graphics/SVG/1.1/DTD/svg11.dtd">
<svg version="1.1" id="Layer_1" xmlns="http://www.w3.org/2000/svg" xmlns:xlink="http://www.w3.org/1999/xlink" x="0px" y="0px"
	 viewBox="0 0 75 75" enable-background="new 0 0 75 75" xml:space="preserve">
<g>
	<polygon fill-rule="evenodd" clip-rule="evenodd" fill="#B1B1B1" points="18,72.5 18,2.5 58.7,2.5 70.5,14.2 70.5,72.5 18,72.5 	
		"/>
	<polygon fill-rule="evenodd" clip-rule="evenodd" fill="#FFFFFF" points="64.7,16.9 53,16.9 53,8.3 23.9,8.3 23.9,66.5 64.7,66.5 
		64.7,16.9 	"/>
	<g>
		<path fill="#B1B1B1" d="M38.9,59l-12.1-5.3v-2.9l12.1-5.2V49l-8.5,3.2l8.5,3.4V59z M40.8,61.5l4.4-18.3h2.5l-4.4,18.3H40.8z
			 M49.7,59v-3.4l8.5-3.3L49.7,49v-3.4l12.1,5.2v2.9L49.7,59z"/>
	</g>
	<g>
		<g>
			<rect x="3.5" y="15" fill="#B1B1B1" width="44" height="20.5"/>
			<g>
				<path fill="#FFFFFF" d="M46.5,16v18.5h-42V16H46.5 M48.4,14h-2h-42h-2v2v18.5v2h2h42h2v-2V16V14L48.4,14z"/>
			</g>
		</g>
		<g>
			<path fill="#FFFFFF" d="M22.2,20.8H24v5.6c0,0.7-0.1,1.3-0.2,1.7c-0.2,0.5-0.5,0.9-0.9,1.2c-0.5,0.3-1.1,0.5-1.8,0.5
				c-0.9,0-1.5-0.2-2-0.7c-0.5-0.5-0.7-1.2-0.7-2.2l1.7-0.2c0,0.5,0.1,0.9,0.2,1.1c0.2,0.3,0.5,0.5,0.9,0.5c0.4,0,0.7-0.1,0.8-0.3
				c0.2-0.2,0.2-0.7,0.2-1.4V20.8z"/>
			<path fill="#FFFFFF" d="M25.4,26.8l1.7-0.2c0.1,0.6,0.3,1,0.6,1.3c0.3,0.3,0.7,0.4,1.3,0.4c0.6,0,1-0.1,1.3-0.4
				c0.3-0.2,0.4-0.5,0.4-0.8c0-0.2-0.1-0.4-0.2-0.5c-0.1-0.1-0.3-0.3-0.6-0.4c-0.2-0.1-0.7-0.2-1.4-0.4c-1-0.2-1.6-0.5-2-0.9
				c-0.5-0.5-0.8-1.1-0.8-1.8c0-0.4,0.1-0.9,0.4-1.3c0.3-0.4,0.6-0.7,1.1-0.9c0.5-0.2,1.1-0.3,1.7-0.3c1.1,0,1.9,0.2,2.5,0.7
				c0.6,0.5,0.9,1.1,0.9,1.9l-1.8,0.1c-0.1-0.5-0.2-0.8-0.5-1c-0.3-0.2-0.6-0.3-1.1-0.3c-0.5,0-0.9,0.1-1.2,0.3
				c-0.2,0.1-0.3,0.3-0.3,0.6c0,0.2,0.1,0.4,0.3,0.5c0.2,0.2,0.8,0.4,1.6,0.6c0.9,0.2,1.5,0.4,1.9,0.6c0.4,0.2,0.7,0.5,1,0.9
				c0.2,0.4,0.4,0.8,0.4,1.4c0,0.5-0.1,1-0.4,1.4c-0.3,0.4-0.7,0.8-1.2,1c-0.5,0.2-1.2,0.3-1.9,0.3c-1.1,0-2-0.3-2.6-0.8
				C25.9,28.5,25.5,27.8,25.4,26.8z"/>
		</g>
	</g>
</g>
</svg>
