<?xml version="1.0" encoding="utf-8"?>
<!-- Generator: Adobe Illustrator 19.1.0, SVG Export Plug-In . SVG Version: 6.00 Build 0)  -->
<!DOCTYPE svg PUBLIC "-//W3C//DTD SVG 1.1//EN" "http://www.w3.org/Graphics/SVG/1.1/DTD/svg11.dtd">
<svg version="1.1" id="Layer_1" xmlns="http://www.w3.org/2000/svg" xmlns:xlink="http://www.w3.org/1999/xlink" x="0px" y="0px"
	 viewBox="0 0 75 75" enable-background="new 0 0 75 75" xml:space="preserve">
<g>
	<g>
		<rect y="0" fill="#009EE2" width="75" height="75"/>
	</g>
	<path fill="#FFFFFF" d="M21.6,22.8c1.9-0.3,4.5-0.6,8.1-0.6c3.9,0,6.7,0.8,8.6,2.4c1.7,1.4,2.8,3.7,2.8,6.4c0,2.8-0.9,5-2.5,6.6
		c-2.1,2.1-5.4,3.1-9.2,3.1c-1,0-1.9,0-2.6-0.2v11h-5.3V22.8z M26.9,36.4c0.6,0.2,1.5,0.2,2.6,0.2c4,0,6.4-1.9,6.4-5.3
		c0-3.2-2.2-5-5.9-5c-1.5,0-2.5,0.1-3.1,0.3V36.4z M42.3,36.6c0-3.7,3.1-6.6,7.9-6.6c2.3,0,4.4,0.6,5.6,1.3l-1,3.8
		c-0.9-0.5-2.6-1.2-4.4-1.2c-1.9,0-2.9,0.9-2.9,2.2c0,1.3,1,2,3.7,2.9c3.8,1.4,5.6,3.3,5.6,6.4c0,3.8-3,6.6-8.5,6.6
		c-2.5,0-4.8-0.6-6.4-1.5l1-3.8c1.2,0.7,3.5,1.5,5.4,1.5c2.3,0,3.4-0.9,3.4-2.3c0-1.4-0.9-2.2-3.4-3.1C44,41.3,42.3,39.1,42.3,36.6z
		"/>
</g>
</svg>
