<?xml version="1.0" encoding="utf-8"?>
<!-- Generator: Adobe Illustrator 19.1.0, SVG Export Plug-In . SVG Version: 6.00 Build 0)  -->
<!DOCTYPE svg PUBLIC "-//W3C//DTD SVG 1.1//EN" "http://www.w3.org/Graphics/SVG/1.1/DTD/svg11.dtd">
<svg version="1.1" id="Layer_1" xmlns="http://www.w3.org/2000/svg" xmlns:xlink="http://www.w3.org/1999/xlink" x="0px" y="0px"
	 viewBox="0 0 75 75" enable-background="new 0 0 75 75" xml:space="preserve">
<g>
	<polygon fill-rule="evenodd" clip-rule="evenodd" fill="#E5007E" points="18,72.5 18,2.5 58.7,2.5 70.5,14.2 70.5,72.5 18,72.5 	
		"/>
	<polygon fill-rule="evenodd" clip-rule="evenodd" fill="#FFFFFF" points="64.7,16.9 53,16.9 53,8.3 23.9,8.3 23.9,66.5 64.7,66.5 
		64.7,16.9 	"/>
	<g>
		<path fill="#E5007E" d="M38.9,59l-12.1-5.3v-2.9l12.1-5.2V49l-8.5,3.2l8.5,3.4V59z M40.8,61.5l4.4-18.3h2.5l-4.4,18.3H40.8z
			 M49.7,59v-3.4l8.5-3.3L49.7,49v-3.4l12.1,5.2v2.9L49.7,59z"/>
	</g>
	<g>
		<g>
			<rect x="3.2" y="14.7" fill="#E5007E" width="44.5" height="21"/>
			<g>
				<path fill="#FFFFFF" d="M46.5,16v18.5h-42V16H46.5 M48.9,13.5h-2.5h-42H2V16v18.5V37h2.5h42h2.5v-2.5V16V13.5L48.9,13.5z"/>
			</g>
		</g>
		<g>
			<path fill="#FFFFFF" d="M13.5,29.7v-8.8h2.9c1.1,0,1.8,0,2.1,0.1c0.5,0.1,0.9,0.4,1.3,0.9c0.3,0.4,0.5,1,0.5,1.7
				c0,0.5-0.1,1-0.3,1.4c-0.2,0.4-0.4,0.7-0.8,0.9c-0.3,0.2-0.6,0.4-0.9,0.4c-0.4,0.1-1,0.1-1.9,0.1h-1.2v3.3H13.5z M15.3,22.3v2.5
				h1c0.7,0,1.2,0,1.4-0.1c0.2-0.1,0.4-0.2,0.6-0.4c0.1-0.2,0.2-0.4,0.2-0.7c0-0.3-0.1-0.6-0.3-0.8c-0.2-0.2-0.4-0.3-0.7-0.4
				c-0.2,0-0.6-0.1-1.3-0.1H15.3z"/>
			<path fill="#FFFFFF" d="M21.7,29.7v-8.8h1.8v3.5H27v-3.5h1.8v8.8H27v-3.9h-3.5v3.9H21.7z"/>
			<path fill="#FFFFFF" d="M30.7,29.7v-8.8h2.9c1.1,0,1.8,0,2.1,0.1c0.5,0.1,0.9,0.4,1.3,0.9c0.3,0.4,0.5,1,0.5,1.7
				c0,0.5-0.1,1-0.3,1.4c-0.2,0.4-0.4,0.7-0.7,0.9c-0.3,0.2-0.6,0.4-0.9,0.4c-0.4,0.1-1,0.1-1.9,0.1h-1.2v3.3H30.7z M32.4,22.3v2.5
				h1c0.7,0,1.2,0,1.4-0.1c0.2-0.1,0.4-0.2,0.6-0.4c0.1-0.2,0.2-0.4,0.2-0.7c0-0.3-0.1-0.6-0.3-0.8c-0.2-0.2-0.4-0.3-0.7-0.4
				c-0.2,0-0.6-0.1-1.3-0.1H32.4z"/>
		</g>
	</g>
</g>
</svg>
