<svg width="257" height="128" viewBox="0 0 257 128" version="1.1" xmlns="http://www.w3.org/2000/svg"><title>sage</title><path d="M60.51 87.544L37.762 71.016l8.69-26.743h28.117l8.69 26.743L60.51 87.544zm60.511-43.58L97.744 27.053 75.159 43.462l8.628-26.551L60.51 0 37.234 16.911l8.627 26.55-22.585-16.408L0 43.964l8.84 27.207.051.155h27.917l-22.586 16.41 8.84 27.207.051.155h28.771l8.626-26.55 8.577 26.395.05.155h28.771l8.891-27.362-22.586-16.41h27.917l8.891-27.362zM247.45 95.496c0-.625-.625-5-5.626-5-5 0-5.625 4.375-5.625 5l.625.626h10.001l.625-.626zm9.376 6.252l-.625.624h-19.377l-.625.625c0 1.251 1.249 5.001 6.25 5.001 1.875 0 3.751-.625 4.376-1.875l.625-.626h7.5l.625.626c-.625 3.75-3.75 9.376-13.126 9.376-10.626 0-15.627-7.501-15.627-16.252 0-8.751 5.001-16.252 15.002-16.252 10.001 0 15.002 7.501 15.002 16.252v2.501zm-48.628 6.25c5 0 6.876-3.75 6.876-8.751 0-5-1.876-8.751-6.876-8.751s-6.875 3.751-6.875 8.751c0 5.001 1.875 8.751 6.875 8.751zm15.627 3.751c0 11.25-6.876 16.251-15.627 16.251-7.501 0-12.501-3.75-13.127-9.376l.626-.625h7.501l.625.625c.625 1.25 1.875 1.875 4.375 1.875 4.375 0 6.876-2.5 6.876-8.126h-.625s-2.5 3.126-8.126 3.126c-7.501 0-13.752-6.251-13.752-16.252 0-10.001 6.251-16.252 13.752-16.252 5.626 0 8.126 3.125 8.126 3.125h.625l.626-1.874.624-.626h6.875l.626.626v27.503zm-43.565-10.001s-1.25-.626-3.75-.626c-3.751 0-5.626 1.25-5.626 3.751 0 1.875 1.25 3.125 4.375 3.125 3.126 0 5.626-1.875 5.626-4.375v-1.251l-.625-.624zm8.751 13.126h-6.876l-.625-.625-.625-1.251h-.625s-2.5 2.501-6.875 2.501c-6.877 0-11.252-3.75-11.252-10.002 0-9.375 8.751-10.626 13.752-10.626 2.5 0 4.375.625 4.375.625l.625-.625v-.624c0-3.126-.625-3.751-4.375-3.751-1.876 0-3.751 0-4.376 1.875l-.625.625h-7.501l-.625-.625c0-3.75 3.125-9.376 13.127-9.376 10.001 0 13.126 5 13.126 14.377v16.877l-.625.625zm-47.627.625c-12.501 0-18.127-6.251-18.127-14.377l.625-.625h7.501l.625.625c0 4.375 2.5 6.876 10.001 6.876 5.626 0 8.751-1.875 8.751-5.626 0-4.375-2.5-5.625-11.251-6.876-8.751-1.249-15.627-4.375-15.627-13.126 0-6.251 5.001-11.877 16.877-11.877 11.877 0 16.877 5.626 16.877 13.127l-.625.626h-7.501l-.625-.626c0-3.75-1.875-5.626-8.751-5.626-5.626 0-7.5 1.876-7.5 4.376 0 3.75 2.5 5.001 11.25 6.251 8.752 1.25 15.627 5 15.627 13.751 0 6.876-5 13.127-18.127 13.127z" fill="#F4F4F4" stroke="none" stroke-width="1" fill-rule="evenodd"/></svg>