<?xml version="1.0" encoding="utf-8"?>
<!-- Generator: Adobe Illustrator 21.1.0, SVG Export Plug-In . SVG Version: 6.00 Build 0)  -->
<svg version="1.1" id="Layer_1" xmlns="http://www.w3.org/2000/svg" xmlns:xlink="http://www.w3.org/1999/xlink" x="0px" y="0px"
	 viewBox="0 0 257 128" style="enable-background:new 0 0 257 128;" xml:space="preserve">
<style type="text/css">
	.st0{fill:#E5375B;}
</style>
<title>sage</title>
<path class="st0" d="M60.5,87.5L37.8,71l8.7-26.7h28.1L83.3,71L60.5,87.5z M121,44L97.7,27.1L75.2,43.5l8.6-26.6L60.5,0L37.2,16.9
	l8.6,26.5L23.3,27.1L0,44l8.8,27.2l0.1,0.2h27.9L14.2,87.7l8.8,27.2l0.1,0.2h28.8l8.6-26.6l8.6,26.4l0.1,0.2h28.8l8.9-27.4
	L84.2,71.3h27.9C112.1,71.3,121,44,121,44z M247.4,95.5c0-0.6-0.6-5-5.6-5c-5,0-5.6,4.4-5.6,5l0.6,0.6h10L247.4,95.5z M256.8,101.7
	l-0.6,0.6h-19.4l-0.6,0.6c0,1.3,1.2,5,6.2,5c1.9,0,3.8-0.6,4.4-1.9l0.6-0.6h7.5l0.6,0.6c-0.6,3.8-3.8,9.4-13.1,9.4
	c-10.6,0-15.6-7.5-15.6-16.3s5-16.3,15-16.3c10,0,15,7.5,15,16.3V101.7z M208.2,108c5,0,6.9-3.8,6.9-8.8c0-5-1.9-8.8-6.9-8.8
	s-6.9,3.8-6.9,8.8C201.3,104.2,203.2,108,208.2,108z M223.8,111.7c0,11.2-6.9,16.3-15.6,16.3c-7.5,0-12.5-3.8-13.1-9.4l0.6-0.6h7.5
	l0.6,0.6c0.6,1.2,1.9,1.9,4.4,1.9c4.4,0,6.9-2.5,6.9-8.1h-0.6c0,0-2.5,3.1-8.1,3.1c-7.5,0-13.8-6.3-13.8-16.3S198.8,83,206.3,83
	c5.6,0,8.1,3.1,8.1,3.1h0.6l0.6-1.9l0.6-0.6h6.9l0.6,0.6L223.8,111.7L223.8,111.7z M180.3,101.7c0,0-1.2-0.6-3.8-0.6
	c-3.8,0-5.6,1.2-5.6,3.8c0,1.9,1.2,3.1,4.4,3.1c3.1,0,5.6-1.9,5.6-4.4v-1.3L180.3,101.7z M189,114.9h-6.9l-0.6-0.6l-0.6-1.3h-0.6
	c0,0-2.5,2.5-6.9,2.5c-6.9,0-11.3-3.8-11.3-10c0-9.4,8.8-10.6,13.8-10.6c2.5,0,4.4,0.6,4.4,0.6l0.6-0.6v-0.6c0-3.1-0.6-3.8-4.4-3.8
	c-1.9,0-3.8,0-4.4,1.9l-0.6,0.6H164l-0.6-0.6c0-3.8,3.1-9.4,13.1-9.4c10,0,13.1,5,13.1,14.4v16.9L189,114.9L189,114.9z M141.4,115.5
	c-12.5,0-18.1-6.3-18.1-14.4l0.6-0.6h7.5l0.6,0.6c0,4.4,2.5,6.9,10,6.9c5.6,0,8.8-1.9,8.8-5.6c0-4.4-2.5-5.6-11.3-6.9
	c-8.8-1.2-15.6-4.4-15.6-13.1c0-6.3,5-11.9,16.9-11.9c11.9,0,16.9,5.6,16.9,13.1l-0.6,0.6h-7.5l-0.6-0.6c0-3.8-1.9-5.6-8.8-5.6
	c-5.6,0-7.5,1.9-7.5,4.4c0,3.8,2.5,5,11.2,6.3c8.8,1.2,15.6,5,15.6,13.8C159.5,109.2,154.5,115.5,141.4,115.5z"/>
</svg>
